# xmcd
# Track frame offsets:
# 150
# 18741
# 36741
# 51731
# 74392
# 94390
# 111575
# 134876
# 152270
# 173320
#
# Disc length: 2590 seconds
# Revision: 0
# Processed by: cddbd v1.5PL3 Copyright (c) Steve Scherf et al.
# Submitted via: VisiTrax 2.9.6.190 - For more info visit www.synapsa.com
#
DISCID=980a1c0a
DTITLE=Zuchero Fornaciari - Spirito DiVino
DYEAR=1995
DGENRE=Blues
TTITLE0=Voodoo Voodoo
TTITLE1=Datemi una pompa
TTITLE2=O.L.S.M.M.
TTITLE3=Pane e sale
TTITLE4=X colpa di chi?
TTITLE5=Il volo
TTITLE6=Senza rimorso
TTITLE7=Papà perchè
TTITLE8=Così celeste
TTITLE9=Alleluja
EXTD=
EXTT0=
EXTT1=
EXTT2=
EXTT3=
EXTT4=
EXTT5=
EXTT6=
EXTT7=
EXTT8=
EXTT9=
PLAYORDER=
